<?xml version="1.0" standalone="no"?>
<!DOCTYPE svg PUBLIC "-//W3C//DTD SVG 20010904//EN"
 "http://www.w3.org/TR/2001/REC-SVG-20010904/DTD/svg10.dtd">
<svg version="1.0" xmlns="http://www.w3.org/2000/svg"
 width="820.000000pt" height="626.000000pt" viewBox="0 0 820.000000 626.000000"
 preserveAspectRatio="xMidYMid meet">

<g transform="translate(0.000000,626.000000) scale(0.100000,-0.100000)"
fill="#000000" stroke="none">
<path d="M3293 3340 c-83 -17 -149 -65 -185 -135 -29 -55 -20 -155 19 -227 28
-51 86 -100 133 -113 14 -4 0 8 -30 27 -30 18 -55 40 -55 48 0 16 95 47 155
50 22 2 28 4 15 7 -21 6 -112 -11 -158 -29 -38 -15 -52 1 -73 82 -39 155 43
265 208 277 177 13 311 -107 294 -261 -5 -42 -4 -47 5 -26 14 32 5 118 -15
159 -33 63 -108 115 -198 136 -35 8 -65 14 -68 14 -3 -1 -24 -5 -47 -9z"/>
<path d="M4083 3326 c-61 -20 -111 -54 -144 -99 -24 -33 -29 -50 -29 -96 1
-32 7 -67 16 -81 10 -16 13 -18 8 -5 -3 11 -9 43 -11 71 -10 98 50 167 172
199 101 26 195 -3 265 -82 49 -56 59 -107 36 -187 -9 -31 -20 -56 -25 -56 -5
0 -28 7 -51 15 -23 8 -50 15 -59 14 -9 -1 4 -7 28 -15 81 -25 78 -45 -14 -84
l-50 -21 39 5 c78 10 138 83 151 183 10 70 -8 116 -63 169 -77 74 -175 99
-269 70z"/>
<path d="M4177 3103 c3 -7 9 -13 13 -13 5 0 17 -3 27 -7 17 -6 17 -6 0 14 -19
22 -48 27 -40 6z"/>
<path d="M3230 3078 c0 -10 -4 -18 -10 -18 -5 0 -10 -4 -10 -10 0 -19 39 -10
51 11 8 17 8 20 -1 14 -7 -4 -16 -1 -21 6 -7 11 -9 10 -9 -3z"/>
<path d="M4001 3029 c-30 -5 -56 -11 -58 -13 -2 -1 7 -11 19 -22 12 -10 18
-14 15 -8 -16 28 25 38 146 38 67 0 109 3 92 7 -43 9 -151 8 -214 -2z"/>
<path d="M3398 3003 c7 -3 16 -2 19 1 4 3 -2 6 -13 5 -11 0 -14 -3 -6 -6z"/>
<path d="M3446 2998 c3 -4 18 -8 33 -8 16 0 43 -3 61 -6 28 -6 31 -10 27 -33
-5 -25 -5 -25 10 -6 27 37 35 55 20 49 -7 -2 -45 -1 -85 4 -39 4 -69 5 -66 0z"/>
<path d="M3465 2696 c-166 -53 -300 -161 -439 -354 -135 -187 -193 -350 -167
-474 15 -68 72 -153 121 -180 48 -25 167 -24 252 2 79 24 265 111 222 104 -25
-5 -35 -1 -48 17 -26 38 -20 77 18 115 38 38 38 39 3 23 -45 -21 -63 -102 -31
-147 15 -22 14 -23 -48 -52 -35 -17 -69 -30 -76 -30 -20 0 -54 86 -54 136 0
49 21 106 37 100 6 -2 10 21 10 59 0 74 23 114 73 129 42 12 87 -15 77 -47 -3
-12 -9 -48 -12 -80 -5 -54 -8 -59 -38 -71 -18 -8 -36 -19 -39 -25 -10 -15 -22
-14 -40 5 -9 8 -16 11 -16 6 0 -5 7 -15 16 -23 13 -11 20 -10 42 5 15 9 39 22
55 27 24 10 27 16 27 54 0 62 14 92 68 142 61 57 76 66 140 88 93 30 224 4
278 -56 15 -17 14 -21 -25 -65 -22 -26 -41 -54 -41 -62 0 -8 13 3 28 24 48 65
120 124 190 156 118 54 325 49 404 -8 42 -31 52 -31 13 0 -24 20 -28 28 -19
42 17 29 61 38 90 19 35 -22 47 -56 26 -72 -14 -11 -11 -13 16 -13 36 0 68
-27 78 -65 3 -14 4 -55 2 -92 -3 -54 -8 -69 -28 -85 -14 -11 -34 -18 -47 -15
-18 3 -24 -2 -35 -37 l-13 -41 -58 1 c-72 2 -86 14 -94 82 -7 59 11 96 54 113
33 12 60 3 91 -30 l24 -26 -27 50 c-29 54 -28 94 2 127 15 17 15 18 -4 18 -22
0 -23 -3 -28 -75 -2 -33 -7 -49 -15 -47 -7 1 -28 -2 -46 -8 -49 -16 -68 -58
-61 -133 l5 -59 -36 7 c-22 4 -48 20 -67 39 -16 18 -24 25 -17 16 26 -35 15
-43 -45 -36 -123 14 -137 23 -81 52 20 11 43 14 67 10 25 -4 31 -2 21 4 -36
23 -109 2 -133 -38 -6 -9 -27 -13 -73 -11 -35 1 -67 -1 -71 -4 -3 -4 25 -7 63
-7 95 0 212 -15 385 -50 151 -31 183 -35 162 -22 -9 5 -9 18 0 50 9 34 15 42
35 42 37 0 82 52 82 94 0 50 23 47 55 -8 25 -42 26 -49 16 -102 -19 -100 -41
-117 -124 -93 -22 6 -41 8 -44 6 -2 -3 47 -17 109 -33 133 -32 316 -40 378
-15 98 40 149 119 151 233 2 155 -98 269 -341 385 -124 60 -154 79 -300 187
-52 38 -126 86 -165 106 l-70 35 -125 -4 c-227 -6 -424 -6 -510 1 -72 6 -77 5
-35 -3 65 -14 393 -17 516 -5 106 10 116 6 99 -40 -20 -51 -107 -107 -188
-120 -36 -6 -42 -4 -42 11 0 27 -58 75 -90 75 -16 0 -32 -4 -35 -10 -4 -6 10
-10 34 -10 54 0 81 -34 81 -101 0 -86 -25 -118 -76 -99 -59 23 -92 98 -70 161
8 22 10 39 6 39 -5 0 -14 -19 -22 -42 -11 -37 -17 -43 -44 -46 -28 -3 -32 1
-48 42 -33 86 -102 111 -157 57 -16 -16 -29 -37 -29 -45 0 -30 -36 -16 -88 32
-67 63 -67 78 1 91 88 17 93 19 57 19 -19 1 -67 -9 -105 -22z m264 -71 c54
-28 80 -146 41 -185 -47 -47 -107 -35 -140 29 -54 106 8 204 99 156z m-448
-125 c-7 -89 6 -197 33 -283 l15 -48 -34 -30 c-34 -30 -59 -91 -53 -128 2 -10
-2 -24 -8 -32 -7 -8 -18 -34 -26 -57 -16 -48 -9 -123 18 -174 8 -15 14 -31 14
-36 0 -5 -33 -15 -73 -21 -116 -19 -202 3 -236 61 -11 18 -24 38 -30 45 -24
27 -43 198 -24 217 4 3 8 12 10 19 11 54 24 89 46 134 38 73 103 164 112 155
5 -4 5 -2 1 5 -7 12 -2 19 66 99 20 24 41 50 45 57 7 12 126 107 129 103 1 0
-1 -39 -5 -86z m1349 8 c83 -60 107 -74 259 -148 152 -73 234 -144 277 -235
27 -59 31 -90 21 -164 -12 -79 -39 -126 -94 -158 -40 -23 -61 -28 -138 -31
-80 -4 -220 9 -232 21 -2 3 4 20 15 38 21 38 28 122 14 159 -6 14 -25 45 -43
70 -18 25 -35 55 -37 68 -3 23 -54 82 -71 82 -5 0 -14 15 -22 33 -7 17 -19 36
-26 40 -10 6 -13 28 -11 75 1 37 -2 103 -6 147 -7 66 -6 77 5 69 8 -6 48 -36
89 -66z m-1174 -264 c21 -6 44 -42 44 -69 0 -7 -13 -23 -30 -35 l-30 -21 -29
20 c-16 12 -34 21 -39 21 -18 0 -22 17 -11 48 13 37 46 49 95 36z"/>
<path d="M4551 1974 c0 -11 3 -14 6 -6 3 7 2 16 -1 19 -3 4 -6 -2 -5 -13z"/>
<path d="M3497 1959 c24 -7 37 -19 48 -46 23 -55 19 -70 -22 -92 -45 -24 -39
-26 19 -7 82 27 243 69 318 81 41 7 64 13 52 14 -13 1 -35 10 -49 21 -14 11
-33 20 -42 19 -11 0 -9 -3 7 -9 22 -9 29 -25 14 -34 -22 -13 -137 -25 -147
-15 -14 14 29 49 61 49 13 0 24 4 24 9 0 9 -30 3 -73 -14 -10 -4 -21 -20 -24
-36 -4 -22 -14 -31 -51 -43 -25 -9 -46 -16 -47 -16 -1 0 -7 17 -13 39 -17 56
-48 91 -80 90 -26 -1 -25 -1 5 -10z"/>
</g>
</svg>
